<?xml version="1.0" encoding="utf-8"?>
<!-- Generator: Adobe Illustrator 22.1.0, SVG Export Plug-In . SVG Version: 6.00 Build 0)  -->
<svg version="1.1" id="Layer_1" xmlns="http://www.w3.org/2000/svg" xmlns:xlink="http://www.w3.org/1999/xlink" x="0px" y="0px"
	 viewBox="0 0 200 160" style="enable-background:new 0 0 200 160;" xml:space="preserve">
<style type="text/css">
	.st0{fill:#FFFFFF;}
	.st1{fill:#F2F2F2;}
	.st2{fill:#DEE0E2;}
	.st3{fill:#0B0C0C;}
	.st4{fill:#00823B;}
	.st5{fill:#6F777B;}
</style>
<title>Screen/Question page/Checkbox input</title>
<desc>Created with Sketch.</desc>
<g id="Screen_x2F_Question-page_x2F_Checkbox-input">
	<g id="Question-page_x2F_Checkbox-input">
		<g id="_x5F_Canvas_x2F_Browser">
			<rect id="BG" x="1" y="1" class="st0" width="196" height="156"/>
			<rect id="Top-Bar" x="1" y="1" class="st1" width="196" height="11"/>
			<rect id="Divider" x="1" y="11" class="st2" width="196" height="1"/>
			<path id="Combined-Shape" class="st2" d="M8,8C6.9,8,6,7.1,6,6s0.9-2,2-2s2,0.9,2,2S9,8,8,8z M14.5,8c-1.1,0-2-0.9-2-2s0.9-2,2-2
				s2,0.9,2,2S15.6,8,14.5,8z M21,8c-1.1,0-2-0.9-2-2s0.9-2,2-2s2,0.9,2,2S22.1,8,21,8z"/>
			<polygon id="BG_Border_Top_2B99C93C-C2D2-47D8-92D7-E97EC61A7761" class="st3" points="0,0 200,0 197,1 1,1 			"/>
			<polygon id="BG_Border_Right_2B99C93C-C2D2-47D8-92D7-E97EC61A7761" class="st3" points="200,0 200,160 197,157 197,1 			"/>
			<polygon id="BG_Border_Bottom_2B99C93C-C2D2-47D8-92D7-E97EC61A7761" class="st3" points="200,160 0,160 1,157 197,157 			"/>
			<polygon id="BG_Border_Left_2B99C93C-C2D2-47D8-92D7-E97EC61A7761" class="st3" points="0,160 0,0 1,1 1,157 			"/>
		</g>
		<g id="Button_x2F_Primary" transform="translate(5.000000, 116.000000)">
			<g id="Fill_x2F__x24_button-colour">
				<rect id="Rectangle" y="0" class="st4" width="32" height="8"/>
			</g>
		</g>
		<g id="Text_x2F_Heading_x2F_Large" transform="translate(5.000000, 44.000000)">
			<g id="Fill_x2F__x24_text-colour">
				<rect id="Rectangle_1_" y="0" class="st3" width="120" height="12"/>
			</g>
		</g>
		<g id="Question_x2F_Checkbox-input" transform="translate(5.000000, 64.000000)">
			<g id="Form_x2F_Label" transform="translate(16.000000, 36.000000)">
				<g id="Fill_x2F__x24_text-colour_1_">
					<rect id="Rectangle_3_" y="0" class="st3" width="80" height="4"/>
				</g>
			</g>
			<g id="Form_x2F_Checkbox-input" transform="translate(0.000000, 32.000000)">
				<g id="Fill_x2F__x24_black">
					<rect id="Rectangle_4_" y="0" class="st3" width="12" height="12"/>
				</g>
				<rect id="Inside" x="2" y="2" class="st0" width="8" height="8"/>
			</g>
			<g id="Form_x2F_Label_1_" transform="translate(16.000000, 20.000000)">
				<g id="Fill_x2F__x24_text-colour_2_">
					<rect id="Rectangle_5_" y="0" class="st3" width="80" height="4"/>
				</g>
			</g>
			<g id="Form_x2F_Checkbox-input_1_" transform="translate(0.000000, 16.000000)">
				<g id="Fill_x2F__x24_black_1_">
					<rect id="Rectangle_6_" y="0" class="st3" width="12" height="12"/>
				</g>
				<rect id="Inside_1_" x="2" y="2" class="st0" width="8" height="8"/>
			</g>
			<g id="Form_x2F_Label_2_" transform="translate(16.000000, 4.000000)">
				<g id="Fill_x2F__x24_text-colour_3_">
					<rect id="Rectangle_7_" y="0" class="st3" width="80" height="4"/>
				</g>
			</g>
			<g id="Form_x2F_Checkbox-input_2_">
				<g id="Fill_x2F__x24_black_2_">
					<rect id="Rectangle_8_" y="0" class="st3" width="12" height="12"/>
				</g>
				<rect id="Inside_2_" x="2" y="2" class="st0" width="8" height="8"/>
			</g>
		</g>
		<g id="Object_x2F_Back" transform="translate(5.000000, 32.000000)">
			<g id="Fill_x2F__x24_secondary-text-colour">
				<rect id="Rectangle_9_" y="0" class="st5" width="16" height="2"/>
			</g>
		</g>
	</g>
</g>
</svg>
