<?xml version="1.0" encoding="utf-8"?>
<!-- Generator: Adobe Illustrator 22.1.0, SVG Export Plug-In . SVG Version: 6.00 Build 0)  -->
<svg version="1.1" id="Layer_1" xmlns="http://www.w3.org/2000/svg" xmlns:xlink="http://www.w3.org/1999/xlink" x="0px" y="0px"
	 viewBox="0 0 200 160" style="enable-background:new 0 0 200 160;" xml:space="preserve">
<style type="text/css">
	.st0{fill:#FFFFFF;}
	.st1{fill:#F2F2F2;}
	.st2{fill:#DEE0E2;}
	.st3{fill:#0B0C0C;}
	.st4{fill:#6F777B;}
	.st5{filter:url(#Adobe_OpacityMaskFilter);}
	.st6{mask:url(#mask-3_1_);}
</style>
<title>Screen/Email</title>
<desc>Created with Sketch.</desc>
<g id="Screen_x2F_Email">
	<g id="Start-page">
		<g id="_x5F_Canvas_x2F_Browser">
			<rect id="BG" x="1" y="1" class="st0" width="196" height="156"/>
			<rect id="Top-Bar" x="1" y="1" class="st1" width="196" height="11"/>
			<rect id="Divider" x="1" y="11" class="st2" width="196" height="1"/>
			<path id="Combined-Shape" class="st2" d="M8,8C6.9,8,6,7.1,6,6s0.9-2,2-2s2,0.9,2,2S9,8,8,8z M14.5,8c-1.1,0-2-0.9-2-2s0.9-2,2-2
				s2,0.9,2,2S15.6,8,14.5,8z M21,8c-1.1,0-2-0.9-2-2s0.9-2,2-2s2,0.9,2,2S22.1,8,21,8z"/>
			<polygon id="BG_Border_Top_2B99C93C-C2D2-47D8-92D7-E97EC61A7761" class="st3" points="0,0 200,0 197,1 1,1 			"/>
			<polygon id="BG_Border_Right_2B99C93C-C2D2-47D8-92D7-E97EC61A7761" class="st3" points="200,0 200,160 197,157 197,1 			"/>
			<polygon id="BG_Border_Bottom_2B99C93C-C2D2-47D8-92D7-E97EC61A7761" class="st3" points="200,160 0,160 1,157 197,157 			"/>
			<polygon id="BG_Border_Left_2B99C93C-C2D2-47D8-92D7-E97EC61A7761" class="st3" points="0,160 0,0 1,1 1,157 			"/>
		</g>
		<g id="Object_x2F_Breadcrumb" transform="translate(5.000000, 32.000000)">
			<g id="Fill_x2F__x24_secondary-text-colour" transform="translate(40.000000, 0.000000)">
				<rect id="Rectangle" y="0" class="st4" width="16" height="2"/>
			</g>
			<g id="Fill_x2F__x24_secondary-text-colour_1_" transform="translate(20.000000, 0.000000)">
				<rect id="Rectangle_1_" y="0" class="st4" width="16" height="2"/>
			</g>
			<g id="Fill_x2F__x24_secondary-text-colour_2_">
				<rect id="Rectangle_2_" y="0" class="st4" width="16" height="2"/>
			</g>
		</g>
	</g>
	<g id="mail" transform="translate(46.000000, 36.000000)">
		<g id="Combined-Shape_1_">
			<path id="path-2_1_" d="M104.5,27.2c0,0,0,0.1,0,0.1v54.4c0,7.5-6.1,13.6-13.6,13.6H18.2c-7.5,0-13.6-6.1-13.6-13.6V27.3
				c0,0,0-0.1,0-0.1c0-7.5,6.1-13.5,13.6-13.5h72.7C98.3,13.6,104.4,19.7,104.5,27.2z M94.9,25.2c-0.8-1.5-2.3-2.5-4.1-2.5H18.2
				c-1.8,0-3.3,1-4.1,2.5l40.4,28.3L94.9,25.2z M95.4,36L57.1,62.8c-1.6,1.1-3.6,1.1-5.2,0L13.6,36v45.8c0,2.5,2.1,4.5,4.5,4.5h72.7
				c2.5,0,4.5-2.1,4.5-4.5V36z"/>
		</g>
		<defs>
			<filter id="Adobe_OpacityMaskFilter" filterUnits="userSpaceOnUse" x="0" y="0" width="109" height="109">
				<feColorMatrix  type="matrix" values="1 0 0 0 0  0 1 0 0 0  0 0 1 0 0  0 0 0 1 0"/>
			</filter>
		</defs>
		<mask maskUnits="userSpaceOnUse" x="0" y="0" width="109" height="109" id="mask-3_1_">
			<g class="st5">
				<path id="path-2_2_" class="st0" d="M104.5,27.2c0,0,0,0.1,0,0.1v54.4c0,7.5-6.1,13.6-13.6,13.6H18.2c-7.5,0-13.6-6.1-13.6-13.6
					V27.3c0,0,0-0.1,0-0.1c0-7.5,6.1-13.5,13.6-13.5h72.7C98.3,13.6,104.4,19.7,104.5,27.2z M94.9,25.2c-0.8-1.5-2.3-2.5-4.1-2.5
					H18.2c-1.8,0-3.3,1-4.1,2.5l40.4,28.3L94.9,25.2z M95.4,36L57.1,62.8c-1.6,1.1-3.6,1.1-5.2,0L13.6,36v45.8
					c0,2.5,2.1,4.5,4.5,4.5h72.7c2.5,0,4.5-2.1,4.5-4.5V36z"/>
			</g>
		</mask>
		<g id="COLOR_x2F_-black" class="st6">
			<rect id="Rectangle_4_" y="0" width="109" height="109"/>
		</g>
	</g>
</g>
</svg>
