<?xml version="1.0" encoding="utf-8"?>
<!-- Generator: Adobe Illustrator 22.1.0, SVG Export Plug-In . SVG Version: 6.00 Build 0)  -->
<svg version="1.1" id="Layer_1" xmlns="http://www.w3.org/2000/svg" xmlns:xlink="http://www.w3.org/1999/xlink" x="0px" y="0px"
	 viewBox="0 0 200 160" style="enable-background:new 0 0 200 160;" xml:space="preserve">
<style type="text/css">
	.st0{fill:#FFFFFF;}
	.st1{fill:#F2F2F2;}
	.st2{fill:#DEE0E2;}
	.st3{fill:#0B0C0C;}
	.st4{fill:#005EA5;}
	.st5{fill:#00823B;}
	.st6{fill:#6F777B;}
</style>
<title>Start page</title>
<desc>Created with Sketch.</desc>
<g id="Symbols">
	<g id="Screen_x2F_Start-page">
		<g id="Start-page">
			<g id="_x5F_Canvas_x2F_Browser">
				<rect id="BG" x="1" y="1" class="st0" width="196" height="156"/>
				<rect id="Top-Bar" x="1" y="1" class="st1" width="196" height="11"/>
				<rect id="Divider" x="1" y="11" class="st2" width="196" height="1"/>
				<path id="Combined-Shape" class="st2" d="M8,8C6.9,8,6,7.1,6,6s0.9-2,2-2s2,0.9,2,2S9,8,8,8z M14.5,8c-1.1,0-2-0.9-2-2
					s0.9-2,2-2s2,0.9,2,2S15.6,8,14.5,8z M21,8c-1.1,0-2-0.9-2-2s0.9-2,2-2s2,0.9,2,2S22.1,8,21,8z"/>
				<polygon id="BG_Border_Top_2B99C93C-C2D2-47D8-92D7-E97EC61A7761" class="st3" points="0,0 200,0 197,1 1,1 				"/>
				<polygon id="BG_Border_Right_2B99C93C-C2D2-47D8-92D7-E97EC61A7761" class="st3" points="200,0 200,160 197,157 197,1 				"/>
				<polygon id="BG_Border_Bottom_2B99C93C-C2D2-47D8-92D7-E97EC61A7761" class="st3" points="200,160 0,160 1,157 197,157 				"/>
				<polygon id="BG_Border_Left_2B99C93C-C2D2-47D8-92D7-E97EC61A7761" class="st3" points="0,160 0,0 1,1 1,157 				"/>
			</g>
			<g id="Object_x2F_SideContent" transform="translate(137.000000, 44.000000)">
				<g id="Text_x2F_Link" transform="translate(0.000000, 36.000000)">
					<g id="Fill_x2F__x24_link-colour">
						<rect id="Rectangle" y="0" class="st4" width="16" height="4"/>
					</g>
				</g>
				<g id="Text_x2F_Link_1_" transform="translate(0.000000, 28.000000)">
					<g id="Fill_x2F__x24_link-colour_1_">
						<rect id="Rectangle_1_" y="0" class="st4" width="16" height="4"/>
					</g>
				</g>
				<g id="Text_x2F_Link_2_" transform="translate(0.000000, 20.000000)">
					<g id="Fill_x2F__x24_link-colour_2_">
						<rect id="Rectangle_2_" y="0" class="st4" width="16" height="4"/>
					</g>
				</g>
				<g id="Fill_x2F__x24_text-colour" transform="translate(0.000000, 8.000000)">
					<rect id="Rectangle_3_" y="0" class="st3" width="32" height="8"/>
				</g>
				<g id="Fill_x2F__x24_govuk-blue">
					<rect id="Rectangle_4_" y="0" class="st4" width="56" height="1"/>
				</g>
			</g>
			<g id="Button_x2F_StartNow" transform="translate(5.000000, 120.000000)">
				<g id="Fill_x2F__x24_button-colour">
					<rect id="Rectangle_5_" y="0" class="st5" width="48" height="12"/>
				</g>
			</g>
			<g id="Text_x2F_Body_x2F_Paragraph" transform="translate(5.000000, 68.000000)">
				<g id="Fill_x2F__x24_text-colour_1_" transform="translate(0.000000, 40.000000)">
					<rect id="Rectangle_6_" y="0" class="st3" width="64" height="4"/>
				</g>
				<g id="Fill_x2F__x24_text-colour_2_" transform="translate(0.000000, 32.000000)">
					<rect id="Rectangle_7_" y="0" class="st3" width="96" height="4"/>
				</g>
				<g id="Fill_x2F__x24_text-colour_3_" transform="translate(0.000000, 24.000000)">
					<rect id="Rectangle_8_" y="0" class="st3" width="96" height="4"/>
				</g>
				<g id="Fill_x2F__x24_text-colour_4_" transform="translate(0.000000, 16.000000)">
					<rect id="Rectangle_9_" y="0" class="st3" width="96" height="4"/>
				</g>
				<g id="Fill_x2F__x24_text-colour_5_" transform="translate(0.000000, 8.000000)">
					<rect id="Rectangle_10_" y="0" class="st3" width="96" height="4"/>
				</g>
				<g id="Fill_x2F__x24_text-colour_6_">
					<rect id="Rectangle_11_" y="0" class="st3" width="64" height="4"/>
				</g>
			</g>
			<g id="Text_x2F_Heading_x2F_Xlarge" transform="translate(5.000000, 44.000000)">
				<g id="Fill_x2F__x24_text-colour_7_">
					<rect id="Rectangle_12_" y="0" class="st3" width="120" height="16"/>
				</g>
			</g>
			<g id="Object_x2F_Breadcrumb" transform="translate(5.000000, 32.000000)">
				<g id="Fill_x2F__x24_secondary-text-colour" transform="translate(40.000000, 0.000000)">
					<rect id="Rectangle_13_" y="0" class="st6" width="16" height="2"/>
				</g>
				<g id="Fill_x2F__x24_secondary-text-colour_1_" transform="translate(20.000000, 0.000000)">
					<rect id="Rectangle_14_" y="0" class="st6" width="16" height="2"/>
				</g>
				<g id="Fill_x2F__x24_secondary-text-colour_2_">
					<rect id="Rectangle_15_" y="0" class="st6" width="16" height="2"/>
				</g>
			</g>
		</g>
	</g>
</g>
</svg>
