<?xml version="1.0" encoding="UTF-8"?>
<svg width="200px" height="160px" viewBox="0 0 200 160" version="1.1" xmlns="http://www.w3.org/2000/svg" xmlns:xlink="http://www.w3.org/1999/xlink">
    <!-- Generator: Sketch 52.5 (67469) - http://www.bohemiancoding.com/sketch -->
    <title>text-input</title>
    <desc>Created with Sketch.</desc>
    <g id="Page-1" stroke="none" stroke-width="1" fill="none" fill-rule="evenodd">
        <g id="text-input">
            <g id="_Canvas/Browser">
                <rect id="BG" fill="#FFFFFF" x="1" y="1" width="196" height="156"></rect>
                <rect id="Top-Bar" fill="#F2F2F2" x="1" y="1" width="196" height="11"></rect>
                <rect id="Divider" fill="#DEE0E2" x="1" y="11" width="196" height="1"></rect>
                <path d="M7.96153846,8 C6.87821068,8 6,7.1045695 6,6 C6,4.8954305 6.87821068,4 7.96153846,4 C9.04486624,4 9.92307692,4.8954305 9.92307692,6 C9.92307692,7.1045695 9.04486624,8 7.96153846,8 Z M14.5,8 C13.4166722,8 12.5384615,7.1045695 12.5384615,6 C12.5384615,4.8954305 13.4166722,4 14.5,4 C15.5833278,4 16.4615385,4.8954305 16.4615385,6 C16.4615385,7.1045695 15.5833278,8 14.5,8 Z M21.0384615,8 C19.9551338,8 19.0769231,7.1045695 19.0769231,6 C19.0769231,4.8954305 19.9551338,4 21.0384615,4 C22.1217893,4 23,4.8954305 23,6 C23,7.1045695 22.1217893,8 21.0384615,8 Z" id="Combined-Shape" fill="#DEE0E2" fill-rule="nonzero"></path>
                <polygon id="BG_Border_Top_2B99C93C-C2D2-47D8-92D7-E97EC61A7761" fill="#0B0C0C" points="0 0 200 0 197 1 1 1"></polygon>
                <polygon id="BG_Border_Right_2B99C93C-C2D2-47D8-92D7-E97EC61A7761" fill="#0B0C0C" points="200 0 200 160 197 157 197 1"></polygon>
                <polygon id="BG_Border_Bottom_2B99C93C-C2D2-47D8-92D7-E97EC61A7761" fill="#0B0C0C" points="200 160 0 160 1 157 197 157"></polygon>
                <polygon id="BG_Border_Left_2B99C93C-C2D2-47D8-92D7-E97EC61A7761" fill="#0B0C0C" points="0 160 0 0 1 1 1 157"></polygon>
            </g>
            <g id="Button/Primary" transform="translate(5.000000, 92.000000)" fill="#00823B">
                <g id="Fill/$button-colour">
                    <rect id="Rectangle" x="0" y="0" width="32" height="8"></rect>
                </g>
            </g>
            <g id="Text/Heading/Large" transform="translate(5.000000, 44.000000)" fill="#0B0C0C">
                <g id="Fill/$text-colour">
                    <rect id="Rectangle" x="0" y="0" width="120" height="12"></rect>
                </g>
            </g>
            <g id="Question/Text-input" transform="translate(5.000000, 64.000000)">
                <g id="Form/Text-input" transform="translate(0.000000, 8.000000)">
                    <g id="Fill/$black" fill="#0B0C0C">
                        <rect id="Rectangle" x="0" y="0" width="96" height="12"></rect>
                    </g>
                    <rect id="Inside" fill="#FFFFFF" x="2" y="2" width="92" height="8"></rect>
                </g>
                <g id="Form/Label" fill="#0B0C0C">
                    <g id="Fill/$text-colour">
                        <rect id="Rectangle" x="0" y="0" width="64" height="4"></rect>
                    </g>
                </g>
            </g>
            <g id="Object/Back" transform="translate(5.000000, 32.000000)" fill="#6F777B">
                <g id="Fill/$secondary-text-colour">
                    <rect id="Rectangle" x="0" y="0" width="16" height="2"></rect>
                </g>
            </g>
        </g>
    </g>
</svg>